<?xml version="1.0" standalone="no"?>
<!DOCTYPE svg PUBLIC "-//W3C//DTD SVG 20010904//EN"
 "http://www.w3.org/TR/2001/REC-SVG-20010904/DTD/svg10.dtd">
<svg version="1.0" xmlns="http://www.w3.org/2000/svg"
 width="474.000000pt" height="474.000000pt" viewBox="0 0 474.000000 474.000000"
 preserveAspectRatio="xMidYMid meet">
<metadata>
Created by potrace 1.11, written by Peter Selinger 2001-2013
</metadata>
<g transform="translate(0.000000,474.000000) scale(0.100000,-0.100000)"
fill="#000000" stroke="none">
<path d="M2889 4140 c-25 -31 -53 -41 -43 -16 3 8 1 17 -4 20 -11 7 -64 -48
-90 -94 -10 -19 -33 -60 -50 -90 -53 -97 -133 -318 -146 -406 -3 -22 -19 -85
-36 -140 -42 -133 -69 -277 -75 -399 -3 -62 -10 -111 -25 -180 -5 -22 -10 -83
-11 -134 -1 -52 -8 -118 -15 -145 -8 -28 -14 -105 -14 -171 -2 -227 2 -409 7
-419 4 -5 8 -70 10 -145 2 -75 5 -163 6 -196 1 -47 -8 -90 -42 -195 -61 -191
-118 -334 -141 -355 -20 -18 -21 -18 -35 1 -58 75 -91 186 -105 345 -5 63 -12
132 -15 152 -28 175 -39 607 -19 737 4 25 8 106 10 180 2 74 6 159 8 188 4 49
-5 74 -19 53 -3 -6 -8 -41 -10 -78 -7 -101 -15 -191 -23 -253 -9 -77 -9 -720
1 -805 4 -38 10 -99 13 -135 10 -107 64 -292 112 -378 25 -46 23 -69 -4 -36
-53 66 -115 273 -129 429 -2 33 -7 87 -10 120 -6 77 -17 399 -18 535 -1 94 8
265 18 345 2 17 8 80 15 140 6 61 13 121 15 135 2 14 7 50 10 80 4 30 13 67
21 82 8 15 14 37 14 50 0 13 4 29 9 37 6 10 5 18 -4 25 -20 16 -5 135 18 148
20 10 23 64 5 70 -10 4 -10 13 -1 41 10 32 8 40 -9 63 -47 60 -118 50 -140
-19 -8 -23 -19 -41 -26 -39 -23 4 -52 -18 -71 -57 -11 -20 -27 -43 -35 -50 -9
-8 -16 -21 -16 -30 0 -14 2 -14 10 -1 15 24 12 2 -5 -30 -19 -37 -27 -38 -19
-2 8 33 7 32 -41 -38 -64 -91 -237 -470 -251 -548 -3 -15 -20 -60 -38 -102
-32 -71 -39 -96 -52 -165 -7 -39 -50 -203 -74 -283 -23 -73 -76 -298 -86 -357
-3 -22 -7 -42 -9 -45 -2 -3 -6 -24 -9 -46 -4 -22 -8 -49 -10 -59 -2 -11 -7
-45 -11 -75 -9 -78 -14 -104 -30 -195 -7 -44 -16 -95 -19 -113 -4 -31 -24 -67
-33 -59 -4 5 -39 224 -47 302 -4 33 -10 83 -14 110 -4 28 -7 210 -6 405 1 310
4 413 20 570 2 19 7 141 10 270 6 231 6 236 -19 320 -34 113 -35 115 -60 129
-51 26 -101 17 -139 -25 -24 -28 -82 -130 -65 -116 25 21 26 1 2 -41 -13 -24
-30 -41 -38 -39 -20 3 -29 -11 -65 -98 -71 -176 -121 -363 -91 -344 21 13 1
-57 -30 -108 -17 -26 -37 -75 -45 -108 -20 -76 -20 -75 1 -59 15 13 16 11 10
-26 -4 -22 -7 -47 -8 -55 -1 -8 -5 3 -8 25 -6 36 -7 38 -18 20 -14 -26 -23
-105 -11 -105 5 0 13 10 18 23 14 34 11 8 -5 -52 -8 -30 -21 -59 -30 -64 -18
-10 -34 -46 -42 -92 -8 -52 -21 -105 -57 -248 -19 -76 -38 -159 -42 -185 -8
-57 -20 -82 -39 -82 -11 0 -15 13 -16 53 0 28 -3 61 -5 72 -12 55 3 596 21
740 3 17 7 68 10 115 5 71 17 164 38 285 2 11 7 27 11 36 8 18 1 194 -10 248
-6 30 -5 33 11 27 17 -6 18 0 12 93 -5 79 -3 106 9 131 9 17 15 49 15 73 -1
72 -74 255 -79 195 0 -7 -3 -33 -6 -58 -3 -25 -8 -74 -11 -110 -8 -78 -14
-102 -24 -95 -5 2 -5 26 -1 52 8 49 14 133 11 167 -1 14 -4 16 -15 7 -16 -13
-42 -96 -51 -161 -14 -101 -18 -117 -40 -175 -16 -43 -23 -85 -24 -147 -2 -98
-5 -121 -27 -198 -20 -68 -22 -81 -28 -151 -3 -30 -14 -89 -26 -130 -13 -46
-23 -114 -26 -183 -2 -60 -9 -128 -15 -150 -11 -37 -18 -198 -18 -381 -1 -38
-6 -94 -12 -122 -10 -44 -9 -70 5 -155 22 -129 25 -159 27 -228 0 -38 11 -78
33 -130 18 -41 36 -87 39 -101 9 -37 50 -60 110 -63 156 -6 240 52 252 175 3
30 8 72 10 94 3 22 7 81 11 130 3 50 7 106 10 125 2 19 7 100 11 180 4 107 10
148 20 155 10 8 14 36 15 97 1 48 5 85 9 83 4 -3 12 9 18 25 7 23 7 33 -3 42
-9 8 -10 25 -5 57 14 84 30 146 45 168 7 12 14 44 14 70 0 26 7 61 15 77 8 15
15 38 15 50 0 11 12 53 26 91 14 39 38 104 54 146 15 41 34 88 42 105 9 16 28
65 43 109 15 44 36 92 46 107 23 31 58 46 69 28 16 -25 -3 -157 -37 -255 -13
-38 -26 -94 -29 -124 -2 -30 -7 -57 -9 -62 -3 -4 -8 -50 -11 -101 -3 -51 -12
-117 -20 -147 -9 -32 -14 -87 -13 -140 1 -47 -3 -115 -9 -151 -26 -150 -31
-192 -26 -237 3 -27 7 -122 10 -213 6 -271 10 -354 17 -375 3 -11 9 -58 12
-104 4 -46 15 -102 26 -125 10 -22 19 -58 19 -78 0 -21 9 -62 20 -92 12 -30
23 -64 25 -77 3 -12 13 -32 23 -43 10 -12 26 -42 36 -68 23 -64 39 -75 79 -59
18 7 46 16 62 19 40 7 119 59 138 91 15 26 30 97 42 200 4 30 8 62 10 71 2 9
6 41 10 71 3 30 8 65 10 79 11 75 22 164 41 325 3 33 7 67 9 75 1 8 6 35 10
60 10 64 10 63 40 190 41 179 86 392 88 420 1 16 -3 24 -11 22 -10 -2 -12 5
-7 30 14 63 31 103 43 100 18 -3 45 66 38 100 -3 15 -2 38 3 51 5 12 21 60 36
107 15 47 47 126 71 177 24 51 44 96 44 101 0 5 7 15 15 22 9 7 14 19 11 27
-4 8 -1 11 5 7 7 -4 9 1 7 12 -9 41 151 308 181 302 10 -2 15 -12 15 -28 -2
-31 -58 -250 -79 -310 -15 -42 -37 -184 -51 -325 -4 -33 -14 -85 -24 -116 -16
-52 -18 -94 -7 -144 3 -11 -1 -38 -9 -60 -8 -22 -16 -89 -19 -149 -4 -90 -2
-113 11 -127 12 -13 13 -22 5 -36 -11 -21 -9 -417 3 -443 3 -9 8 -49 10 -90 4
-86 33 -205 76 -314 17 -41 30 -80 30 -86 0 -28 74 -141 101 -155 59 -31 132
-23 241 27 89 41 124 80 184 202 44 92 54 105 54 79 0 -17 4 -34 9 -37 13 -9
67 -161 81 -231 12 -56 45 -129 78 -167 12 -15 29 -17 113 -14 111 5 150 21
184 78 19 31 20 52 21 405 1 335 9 626 19 686 2 12 6 61 10 109 3 49 8 96 9
105 2 10 6 41 10 68 10 76 36 205 51 255 71 236 135 413 174 485 70 130 230
316 327 380 69 46 99 43 113 -13 35 -133 42 -186 43 -315 1 -76 5 -140 9 -143
5 -2 4 -15 -1 -28 -11 -31 -39 -195 -45 -266 -6 -82 -20 -146 -38 -173 -8 -13
-66 -50 -129 -82 -62 -32 -144 -77 -183 -99 -38 -23 -83 -48 -100 -56 -48 -24
-134 -120 -165 -185 -27 -54 -30 -72 -34 -185 -5 -152 9 -213 79 -347 50 -95
93 -151 134 -173 36 -18 194 -24 249 -9 42 12 132 75 175 124 30 33 103 148
115 180 28 72 82 324 98 453 1 13 7 29 13 36 6 8 9 33 5 59 -3 27 -1 47 5 47
5 0 12 39 16 86 7 74 11 91 34 114 61 65 588 258 709 260 12 0 31 9 42 20 51
51 5 72 -140 66 -131 -6 -381 -68 -542 -134 -51 -21 -87 -18 -82 6 23 116 26
491 3 476 -5 -3 -7 -16 -5 -29 3 -14 2 -27 -2 -29 -4 -2 -8 16 -10 41 -1 25
-9 77 -16 117 -8 39 -17 91 -20 115 -8 59 -49 126 -97 158 -22 15 -77 36 -121
48 -151 40 -253 6 -389 -129 -80 -79 -149 -169 -149 -193 0 -6 -22 -38 -50
-69 -27 -31 -50 -62 -50 -68 0 -6 -13 -30 -29 -53 -15 -23 -45 -95 -65 -160
-21 -65 -55 -170 -76 -233 -21 -63 -46 -160 -55 -215 -9 -55 -18 -102 -20
-106 -14 -22 -35 -216 -39 -364 -2 -82 -7 -161 -10 -175 -3 -14 -7 -43 -10
-65 -2 -22 -12 -57 -21 -78 -8 -21 -13 -42 -10 -47 3 -5 1 -11 -4 -14 -10 -6
-16 16 -27 99 -4 28 -8 58 -10 67 -25 144 -26 1090 0 1228 3 14 12 90 21 170
9 80 18 153 21 162 3 10 -1 27 -9 38 -8 11 -13 35 -11 53 11 97 38 205 64 255
18 36 31 79 35 115 2 32 16 89 29 128 20 56 22 75 13 98 -13 36 10 112 59 193
50 83 45 144 -7 78z m-110 -194 c-11 -25 -25 -46 -29 -46 -14 0 3 60 29 99 26
40 26 1 0 -53z m-224 -771 c-9 -50 -13 -60 -14 -35 -1 33 17 116 24 108 1 -1
-3 -34 -10 -73z m710 -17 c-25 -35 -61 -91 -81 -125 -36 -63 -48 -74 -57 -50
-9 25 148 237 177 237 4 0 -13 -28 -39 -62z m-1401 37 c-4 -8 -10 -15 -15 -15
-4 0 -6 7 -3 15 4 8 10 15 15 15 4 0 6 -7 3 -15z m1486 -68 c0 -2 -10 -12 -22
-23 l-23 -19 19 23 c18 21 26 27 26 19z m-68 -99 c-66 -108 -143 -293 -200
-483 -34 -115 -42 -147 -62 -250 -6 -27 -12 -61 -15 -75 -9 -43 -24 -161 -30
-240 -4 -41 -8 -88 -10 -105 -5 -36 -13 -184 -20 -360 -7 -186 -16 -309 -22
-315 -6 -5 5 520 11 560 3 14 7 66 11 115 4 50 8 92 10 95 1 3 6 45 10 94 8
98 9 106 31 221 27 141 53 231 113 399 73 203 170 400 189 382 2 -3 -5 -20
-16 -38z m-162 -78 c0 -18 -60 -193 -73 -214 -8 -12 -17 -37 -21 -56 -4 -19
-13 -44 -21 -54 -26 -34 -29 7 -5 61 12 26 23 57 24 68 10 73 96 249 96 195z
m-1430 -49 c-11 -23 -22 -41 -24 -41 -8 0 7 45 22 68 24 36 25 18 2 -27z
m-701 12 c0 -25 -1 -25 -8 -8 -5 11 -7 23 -4 28 8 14 13 7 12 -20z m-658 -135
l-9 -33 -1 41 c-1 22 2 44 7 48 12 12 14 -19 3 -56z m3490 -30 c0 -29 -9 -83
-20 -120 -11 -37 -18 -75 -16 -85 2 -10 4 -20 4 -23 1 -3 6 2 11 10 7 11 8 6
5 -15 -2 -17 -4 -33 -4 -37 -1 -5 -8 -8 -16 -8 -8 0 -15 -9 -15 -19 0 -11 -5
-23 -10 -26 -7 -4 -8 5 -5 27 3 18 8 55 11 83 2 27 9 75 15 105 6 30 12 77 15
103 7 87 26 90 25 5z m-2190 19 c-10 -9 -11 -8 -5 6 3 10 9 15 12 12 3 -3 0
-11 -7 -18z m2305 -119 c-9 -127 -21 -182 -35 -160 -4 6 -1 51 6 99 7 49 14
103 15 121 1 17 6 32 11 32 6 0 7 -37 3 -92z m-2871 -66 c-3 -37 -8 -89 -10
-117 -8 -91 -15 -199 -20 -295 -2 -52 -8 -156 -12 -230 -10 -178 -10 -435 0
-535 5 -44 10 -102 13 -130 4 -50 11 -102 20 -160 3 -16 16 -74 30 -127 26
-104 29 -128 15 -112 -8 8 -35 101 -46 159 -17 85 -41 242 -52 330 -15 129 -6
863 11 965 3 14 7 57 11 95 3 39 8 90 11 115 3 25 7 59 9 75 1 17 3 34 4 38 0
5 6 5 11 2 6 -4 8 -33 5 -73z m1423 32 c2 -16 -4 -38 -12 -49 -15 -19 -15 -19
-17 8 -2 32 -2 65 0 73 3 18 26 -7 29 -32z m-917 -5 c-5 -13 -10 -19 -10 -12
-1 15 10 45 15 40 3 -2 0 -15 -5 -28z m1419 -26 c0 -26 -42 -153 -50 -153 -21
0 -19 25 6 99 24 72 44 96 44 54z m-1445 -30 c-4 -10 -18 -56 -31 -103 -14
-47 -33 -103 -43 -125 -10 -22 -21 -53 -25 -69 -4 -15 -10 -26 -13 -23 -6 7
72 268 94 310 15 30 29 37 18 10z m-615 -73 c0 -5 -4 -10 -10 -10 -5 0 -10 5
-10 10 0 6 5 10 10 10 6 0 10 -4 10 -10z m1560 -70 c0 -11 -4 -20 -9 -20 -5 0
-7 9 -4 20 3 11 7 20 9 20 2 0 4 -9 4 -20z m128 -43 c-1 -21 -5 -40 -10 -43
-9 -6 -13 28 -9 89 2 40 21 -4 19 -46z m-731 -39 c-3 -8 -6 -5 -6 6 -1 11 2
17 5 13 3 -3 4 -12 1 -19z m0 -70 c-2 -13 -4 -5 -4 17 -1 22 1 32 4 23 2 -10
2 -28 0 -40z m1015 18 c2 -21 0 -34 -7 -33 -5 1 -9 -9 -7 -23 7 -56 1 -127
-15 -154 -6 -11 -7 -33 -3 -52 6 -24 4 -36 -5 -42 -10 -5 -11 -18 -6 -47 9
-52 7 -70 -6 -68 -7 1 -8 -12 -2 -40 4 -23 8 -43 8 -45 1 -1 -6 -16 -14 -33
-9 -16 -14 -38 -11 -47 16 -51 16 -82 1 -82 -13 0 -14 -11 -9 -67 3 -38 7 -73
9 -80 2 -7 -2 -10 -9 -7 -11 4 -14 -8 -14 -53 1 -89 -5 -143 -14 -143 -5 0 -6
44 -3 98 3 53 8 158 11 232 5 134 6 148 18 245 3 28 8 73 11 100 9 89 17 159
20 185 2 14 7 52 11 85 6 58 19 105 28 105 2 0 6 -15 8 -34z m-432 -68 c0 -67
-9 -77 -11 -12 -2 51 0 74 6 74 3 0 5 -28 5 -62z m1415 19 c-4 -21 -7 -47 -20
-172 -13 -131 -49 -315 -61 -315 -6 0 0 80 10 140 3 14 7 52 11 85 3 33 10 85
15 115 5 30 11 73 14 95 5 33 10 64 15 83 1 2 5 1 10 -3 5 -3 8 -15 6 -28z
m-3745 -84 c0 -70 -9 -84 -11 -17 -2 54 0 84 6 84 3 0 5 -30 5 -67z m3617 -14
c1 -11 -2 -19 -8 -19 -5 0 -9 10 -10 23 0 20 -1 20 -8 3 -8 -22 -3 -68 8 -62
3 2 5 -15 5 -37 -3 -65 -5 -74 -14 -47 l-8 25 -2 -25 c-3 -31 -3 -31 5 -55 6
-16 5 -17 -4 -5 -9 13 -11 13 -12 0 -6 -61 -36 -210 -44 -218 -3 -3 0 -11 6
-19 9 -10 8 -18 -6 -33 -26 -29 -35 -24 -24 13 5 17 12 46 15 62 2 17 7 37 9
45 2 8 7 40 10 70 3 30 8 62 10 70 4 17 12 84 20 174 3 32 8 62 11 67 8 13 40
-11 41 -32z m-139 -8 c10 -6 12 -31 8 -107 -8 -139 -10 -149 -77 -386 -42
-145 -73 -213 -95 -204 -7 3 -16 1 -19 -4 -13 -21 -25 -7 -69 73 -97 179 -109
285 -48 410 39 79 88 125 198 183 89 48 84 47 102 35z m-1003 -236 c3 -55 8
-120 10 -145 3 -25 7 -83 10 -130 l4 -85 -14 70 c-8 39 -17 144 -21 235 -7
178 1 219 11 55z m-2498 38 c-3 -10 -5 -2 -5 17 0 19 2 27 5 18 2 -10 2 -26 0
-35z m0 -60 c-3 -10 -5 -4 -5 12 0 17 2 24 5 18 2 -7 2 -21 0 -30z m0 -85 c-3
-7 -5 -2 -5 12 0 14 2 19 5 13 2 -7 2 -19 0 -25z m3137 -48 c3 -19 8 -53 11
-75 4 -22 9 -48 12 -59 3 -12 1 -16 -6 -12 -17 11 -41 105 -41 160 1 55 13 48
24 -14z m-134 -37 c0 -21 3 -24 9 -13 6 8 7 18 5 22 -3 4 0 8 5 8 10 0 12 -10
14 -52 0 -7 -3 -26 -8 -42 -7 -26 -9 -27 -18 -10 -14 25 -26 114 -15 114 4 0
8 -12 8 -27z m-3003 -245 c-3 -7 -5 -2 -5 12 0 14 2 19 5 13 2 -7 2 -19 0 -25z
m790 -23 c0 -8 -4 -12 -9 -9 -5 3 -6 10 -3 15 9 13 12 11 12 -6z m1768 -37
c18 -61 23 -90 14 -81 -14 14 -40 103 -30 103 5 0 12 -10 16 -22z m-758 -50
c-3 -8 -6 -5 -6 6 -1 11 2 17 5 13 3 -3 4 -12 1 -19z m-1780 -55 c-3 -10 -5
-4 -5 12 0 17 2 24 5 18 2 -7 2 -21 0 -30z m2667 -48 c-4 -8 -8 -15 -10 -15
-2 0 -4 7 -4 15 0 8 4 15 10 15 5 0 7 -7 4 -15z m128 -230 c-2 -72 -7 -114
-12 -105 -10 16 -11 116 -2 220 9 109 18 38 14 -115z m-264 -58 c12 -44 -3
-51 -19 -9 -6 15 -17 39 -25 54 -8 14 -14 34 -14 44 0 27 45 -43 58 -89z"/>
<path d="M2081 3044 c0 -11 3 -14 6 -6 3 7 2 16 -1 19 -3 4 -6 -2 -5 -13z"/>
</g>
</svg>
